<svg width="125" height="16" viewBox="0 0 125 16" fill="none" xmlns="http://www.w3.org/2000/svg">
<path d="M4.296 12.16C2.90933 12.16 1.86933 11.7707 1.176 10.992C0.482667 10.2027 0.109333 9.14667 0.056 7.824C0.0453334 7.536 0.0400001 7.06667 0.0400001 6.416C0.0400001 5.75467 0.0453334 5.27467 0.056 4.976C0.109333 3.65333 0.482667 2.60267 1.176 1.824C1.86933 1.03467 2.90933 0.639999 4.296 0.639999C5.24533 0.639999 6.03467 0.815999 6.664 1.168C7.29333 1.50933 7.75733 1.94667 8.056 2.48C8.36533 3.00267 8.536 3.54133 8.568 4.096V4.128C8.568 4.21333 8.536 4.28267 8.472 4.336C8.408 4.38933 8.328 4.416 8.232 4.416H7.912C7.72 4.416 7.60267 4.304 7.56 4.08C7.35733 3.17333 6.98933 2.53333 6.456 2.16C5.92267 1.78667 5.20267 1.6 4.296 1.6C3.29333 1.6 2.51467 1.88267 1.96 2.448C1.40533 3.01333 1.10667 3.88267 1.064 5.056C1.05333 5.344 1.048 5.78667 1.048 6.384C1.048 6.98133 1.05333 7.43467 1.064 7.744C1.10667 8.91733 1.40533 9.78667 1.96 10.352C2.51467 10.9173 3.29333 11.2 4.296 11.2C5.20267 11.2 5.92267 11.0133 6.456 10.64C6.98933 10.2667 7.35733 9.62667 7.56 8.72C7.60267 8.496 7.72 8.384 7.912 8.384H8.232C8.328 8.384 8.408 8.416 8.472 8.48C8.54667 8.53333 8.57867 8.608 8.568 8.704C8.536 9.25867 8.36533 9.80267 8.056 10.336C7.75733 10.8587 7.29333 11.296 6.664 11.648C6.03467 11.9893 5.24533 12.16 4.296 12.16ZM13.8859 12.16C12.7765 12.16 11.9125 11.824 11.2939 11.152C10.6859 10.4693 10.3659 9.58933 10.3339 8.512L10.3179 7.84L10.3339 7.168C10.3659 6.09067 10.6859 5.216 11.2939 4.544C11.9125 3.86133 12.7765 3.52 13.8859 3.52C14.9952 3.52 15.8539 3.86133 16.4619 4.544C17.0805 5.216 17.4059 6.09067 17.4379 7.168C17.4485 7.27467 17.4539 7.49867 17.4539 7.84C17.4539 8.18133 17.4485 8.40533 17.4379 8.512C17.4059 9.58933 17.0805 10.4693 16.4619 11.152C15.8539 11.824 14.9952 12.16 13.8859 12.16ZM13.8859 11.232C14.6432 11.232 15.2512 10.992 15.7099 10.512C16.1792 10.0213 16.4299 9.328 16.4619 8.432C16.4725 8.32533 16.4779 8.128 16.4779 7.84C16.4779 7.552 16.4725 7.35467 16.4619 7.248C16.4299 6.352 16.1792 5.664 15.7099 5.184C15.2512 4.69333 14.6432 4.448 13.8859 4.448C13.1285 4.448 12.5152 4.69333 12.0459 5.184C11.5872 5.664 11.3419 6.352 11.3099 7.248L11.2939 7.84L11.3099 8.432C11.3419 9.328 11.5872 10.0213 12.0459 10.512C12.5152 10.992 13.1285 11.232 13.8859 11.232ZM20.0078 15.04C19.9011 15.04 19.8158 15.008 19.7518 14.944C19.6878 14.88 19.6558 14.7947 19.6558 14.688V4.032C19.6558 3.92533 19.6878 3.84 19.7518 3.776C19.8158 3.712 19.9011 3.68 20.0078 3.68H20.2798C20.3864 3.68 20.4718 3.712 20.5358 3.776C20.5998 3.84 20.6318 3.92533 20.6318 4.032V4.784C21.2504 3.94133 22.1464 3.52 23.3198 3.52C24.4718 3.52 25.3198 3.888 25.8638 4.624C26.4184 5.34933 26.7118 6.24533 26.7438 7.312C26.7544 7.41867 26.7598 7.59467 26.7598 7.84C26.7598 8.08533 26.7544 8.26133 26.7438 8.368C26.7118 9.43467 26.4184 10.336 25.8638 11.072C25.3198 11.7973 24.4718 12.16 23.3198 12.16C22.1571 12.16 21.2611 11.7387 20.6318 10.896V14.688C20.6318 14.7947 20.5998 14.88 20.5358 14.944C20.4718 15.008 20.3864 15.04 20.2798 15.04H20.0078ZM23.2238 11.232C24.0878 11.232 24.7171 10.96 25.1118 10.416C25.5171 9.86133 25.7358 9.152 25.7678 8.288C25.7784 8.18133 25.7838 8.032 25.7838 7.84C25.7838 6.848 25.5918 6.03733 25.2078 5.408C24.8238 4.768 24.1624 4.448 23.2238 4.448C22.3811 4.448 21.7464 4.73067 21.3198 5.296C20.8931 5.85067 20.6638 6.50667 20.6318 7.264L20.6158 7.888L20.6318 8.512C20.6424 8.97067 20.7438 9.408 20.9358 9.824C21.1278 10.2293 21.4158 10.5653 21.7998 10.832C22.1838 11.0987 22.6584 11.232 23.2238 11.232ZM30.0478 15.04C29.9624 15.04 29.8878 15.008 29.8238 14.944C29.7598 14.88 29.7278 14.8053 29.7278 14.72C29.7278 14.6667 29.7598 14.56 29.8238 14.4L31.0558 11.52L27.9998 4.32C27.9358 4.16 27.9038 4.05333 27.9038 4C27.9038 3.91467 27.9358 3.84 27.9998 3.776C28.0638 3.712 28.1384 3.68 28.2238 3.68H28.5598C28.7304 3.68 28.8531 3.76 28.9278 3.92L31.6158 10.256L34.3678 3.92C34.4531 3.76 34.5758 3.68 34.7358 3.68H35.0558C35.1411 3.68 35.2158 3.712 35.2798 3.776C35.3438 3.84 35.3758 3.91467 35.3758 4C35.3758 4.05333 35.3438 4.16 35.2798 4.32L30.7358 14.8C30.6611 14.96 30.5384 15.04 30.3678 15.04H30.0478ZM37.5074 12C37.4007 12 37.3154 11.968 37.2514 11.904C37.1874 11.84 37.1554 11.7547 37.1554 11.648V4.048C37.1554 3.94133 37.1874 3.856 37.2514 3.792C37.3154 3.71733 37.4007 3.68 37.5074 3.68H37.7634C37.87 3.68 37.9554 3.71733 38.0194 3.792C38.094 3.856 38.1314 3.94133 38.1314 4.048V4.784C38.5154 4.048 39.2407 3.68 40.3074 3.68H40.8994C41.006 3.68 41.0914 3.712 41.1554 3.776C41.2194 3.84 41.2514 3.92533 41.2514 4.032V4.256C41.2514 4.36267 41.2194 4.448 41.1554 4.512C41.0914 4.576 41.006 4.608 40.8994 4.608H40.2114C39.5714 4.608 39.0647 4.79467 38.6914 5.168C38.318 5.54133 38.1314 6.048 38.1314 6.688V11.648C38.1314 11.7547 38.094 11.84 38.0194 11.904C37.9554 11.968 37.87 12 37.7634 12H37.5074ZM42.8939 1.968C42.7872 1.968 42.7019 1.936 42.6379 1.872C42.5739 1.808 42.5419 1.72267 42.5419 1.616V1.008C42.5419 0.901333 42.5739 0.816 42.6379 0.752C42.7019 0.677333 42.7872 0.639999 42.8939 0.639999H43.5019C43.6085 0.639999 43.6939 0.677333 43.7579 0.752C43.8325 0.816 43.8699 0.901333 43.8699 1.008V1.616C43.8699 1.72267 43.8325 1.808 43.7579 1.872C43.6939 1.936 43.6085 1.968 43.5019 1.968H42.8939ZM43.0699 12C42.9632 12 42.8779 11.968 42.8139 11.904C42.7499 11.84 42.7179 11.7547 42.7179 11.648V4.032C42.7179 3.92533 42.7499 3.84 42.8139 3.776C42.8779 3.712 42.9632 3.68 43.0699 3.68H43.3419C43.4485 3.68 43.5339 3.712 43.5979 3.776C43.6619 3.84 43.6939 3.92533 43.6939 4.032V11.648C43.6939 11.7547 43.6619 11.84 43.5979 11.904C43.5339 11.968 43.4485 12 43.3419 12H43.0699ZM49.3844 15.52C48.5524 15.52 47.8857 15.376 47.3844 15.088C46.883 14.8 46.531 14.4693 46.3284 14.096C46.1364 13.7333 46.0404 13.4133 46.0404 13.136C46.0404 13.04 46.0724 12.96 46.1364 12.896C46.211 12.832 46.2964 12.8 46.3924 12.8H46.6164C46.7124 12.8 46.787 12.8213 46.8404 12.864C46.9044 12.9173 46.9577 13.008 47.0004 13.136C47.331 14.1067 48.099 14.592 49.3044 14.592C50.2217 14.592 50.899 14.4 51.3364 14.016C51.7737 13.6427 51.9924 12.9707 51.9924 12V10.896C51.3737 11.7387 50.4777 12.16 49.3044 12.16C48.1524 12.16 47.299 11.7867 46.7444 11.04C46.2004 10.2827 45.9124 9.36533 45.8804 8.288L45.8644 7.84L45.8804 7.392C45.9124 6.31467 46.2004 5.40267 46.7444 4.656C47.299 3.89867 48.1524 3.52 49.3044 3.52C50.467 3.52 51.363 3.94133 51.9924 4.784V4.048C51.9924 3.94133 52.0244 3.856 52.0884 3.792C52.1524 3.71733 52.2377 3.68 52.3444 3.68H52.6004C52.707 3.68 52.7924 3.71733 52.8564 3.792C52.931 3.856 52.9684 3.94133 52.9684 4.048V11.84C52.9684 12.9813 52.7017 13.8773 52.1684 14.528C51.635 15.1893 50.707 15.52 49.3844 15.52ZM49.4004 11.232C50.243 11.232 50.8777 10.9547 51.3044 10.4C51.731 9.83467 51.9604 9.17333 51.9924 8.416C52.003 8.30933 52.0084 8.11733 52.0084 7.84C52.0084 7.56267 52.003 7.37067 51.9924 7.264C51.9604 6.50667 51.731 5.85067 51.3044 5.296C50.8777 4.73067 50.243 4.448 49.4004 4.448C48.5364 4.448 47.9017 4.72533 47.4964 5.28C47.1017 5.824 46.8884 6.528 46.8564 7.392L46.8404 7.84L46.8564 8.288C46.8884 9.152 47.1017 9.86133 47.4964 10.416C47.9017 10.96 48.5364 11.232 49.4004 11.232ZM55.9453 12C55.8386 12 55.7533 11.968 55.6893 11.904C55.6253 11.84 55.5933 11.7547 55.5933 11.648V0.992C55.5933 0.885333 55.6253 0.8 55.6893 0.735999C55.7533 0.671999 55.8386 0.639999 55.9453 0.639999H56.2173C56.3239 0.639999 56.4093 0.671999 56.4733 0.735999C56.5373 0.8 56.5693 0.885333 56.5693 0.992V4.784C56.8893 4.368 57.2519 4.05333 57.6573 3.84C58.0733 3.62667 58.6066 3.52 59.2573 3.52C60.3026 3.52 61.1079 3.856 61.6733 4.528C62.2386 5.18933 62.5213 6.048 62.5213 7.104V11.648C62.5213 11.7547 62.4893 11.84 62.4253 11.904C62.3613 11.968 62.2759 12 62.1693 12H61.8973C61.7906 12 61.7053 11.968 61.6413 11.904C61.5773 11.84 61.5453 11.7547 61.5453 11.648V7.184C61.5453 6.32 61.3319 5.648 60.9053 5.168C60.4893 4.688 59.8866 4.448 59.0973 4.448C58.3293 4.448 57.7159 4.69333 57.2573 5.184C56.7986 5.664 56.5693 6.33067 56.5693 7.184V11.648C56.5693 11.7547 56.5373 11.84 56.4733 11.904C56.4093 11.968 56.3239 12 56.2173 12H55.9453ZM67.7054 12C66.916 12 66.356 11.7653 66.0254 11.296C65.6947 10.816 65.5294 10.16 65.5294 9.328V4.608H64.2814C64.1747 4.608 64.0894 4.576 64.0254 4.512C63.9614 4.448 63.9294 4.36267 63.9294 4.256V4.032C63.9294 3.92533 63.9614 3.84 64.0254 3.776C64.0894 3.712 64.1747 3.68 64.2814 3.68H65.5294V0.992C65.5294 0.885333 65.5614 0.8 65.6254 0.735999C65.6894 0.671999 65.7747 0.639999 65.8814 0.639999H66.1534C66.26 0.639999 66.3454 0.671999 66.4094 0.735999C66.4734 0.8 66.5054 0.885333 66.5054 0.992V3.68H68.4894C68.596 3.68 68.6814 3.712 68.7454 3.776C68.8094 3.84 68.8414 3.92533 68.8414 4.032V4.256C68.8414 4.36267 68.8094 4.448 68.7454 4.512C68.6814 4.576 68.596 4.608 68.4894 4.608H66.5054V9.264C66.5054 9.86133 66.6014 10.3147 66.7934 10.624C66.996 10.9227 67.3267 11.072 67.7854 11.072H68.6494C68.756 11.072 68.8414 11.104 68.9054 11.168C68.9694 11.232 69.0014 11.3173 69.0014 11.424V11.648C69.0014 11.7547 68.9694 11.84 68.9054 11.904C68.8414 11.968 68.756 12 68.6494 12H67.7054ZM79.9324 13.808C78.3324 13.808 77.0684 13.3973 76.1404 12.576C75.223 11.7547 74.679 10.5653 74.5084 9.008C74.4764 8.69867 74.4604 8.23467 74.4604 7.616C74.4604 6.98667 74.4764 6.53867 74.5084 6.272C74.6897 4.736 75.2444 3.54667 76.1724 2.704C77.1004 1.85067 78.3537 1.424 79.9324 1.424C81.7457 1.424 83.1217 1.84 84.0604 2.672C85.0097 3.49333 85.5217 4.69333 85.5964 6.272C85.6177 6.72 85.6284 7.06133 85.6284 7.296C85.6284 7.81867 85.6177 8.18667 85.5964 8.4C85.5004 9.95733 84.8124 10.736 83.5324 10.736C83.0844 10.736 82.7217 10.6347 82.4444 10.432C82.1777 10.2293 81.975 10.016 81.8364 9.792C81.399 10.528 80.7324 10.896 79.8364 10.896C79.0257 10.896 78.3857 10.6133 77.9164 10.048C77.447 9.472 77.2124 8.66667 77.2124 7.632C77.2124 6.59733 77.447 5.792 77.9164 5.216C78.3964 4.64 79.0364 4.352 79.8364 4.352C80.2417 4.352 80.5724 4.42667 80.8284 4.576C81.0844 4.72533 81.303 4.912 81.4844 5.136V4.832C81.4844 4.72533 81.5164 4.64 81.5804 4.576C81.6444 4.512 81.7297 4.48 81.8364 4.48H82.1084C82.215 4.48 82.3004 4.512 82.3644 4.576C82.4284 4.64 82.4604 4.72533 82.4604 4.832V8.32C82.4604 8.8 82.5564 9.168 82.7484 9.424C82.951 9.68 83.2124 9.808 83.5324 9.808C83.9484 9.808 84.231 9.65333 84.3804 9.344C84.5297 9.024 84.6097 8.67733 84.6204 8.304C84.6417 8.09067 84.6524 7.74933 84.6524 7.28C84.6524 6.87467 84.6417 6.56533 84.6204 6.352C84.5244 5.02933 84.103 4.032 83.3564 3.36C82.6204 2.688 81.479 2.352 79.9324 2.352C78.6417 2.352 77.6124 2.69867 76.8444 3.392C76.087 4.08533 75.6337 5.072 75.4844 6.352C75.4524 6.61867 75.4364 7.04 75.4364 7.616C75.4364 8.18133 75.4524 8.61867 75.4844 8.928C75.623 10.1867 76.071 11.1627 76.8284 11.856C77.5964 12.5387 78.631 12.88 79.9324 12.88C80.6577 12.88 81.255 12.816 81.7244 12.688C82.2044 12.56 82.5244 12.4427 82.6844 12.336C82.855 12.2293 83.1217 12.0373 83.4844 11.76C83.495 11.7493 83.5324 11.7173 83.5964 11.664C83.671 11.6 83.7617 11.568 83.8684 11.568H84.2844C84.3804 11.568 84.4604 11.6 84.5244 11.664C84.5884 11.728 84.6204 11.808 84.6204 11.904C84.6204 11.9787 84.5937 12.0533 84.5404 12.128C84.039 12.64 83.431 13.0453 82.7164 13.344C82.0017 13.6533 81.0737 13.808 79.9324 13.808ZM79.8364 9.968C80.4337 9.968 80.855 9.76533 81.1004 9.36C81.3564 8.944 81.4844 8.368 81.4844 7.632C81.4844 6.896 81.3564 6.32 81.1004 5.904C80.855 5.488 80.4337 5.28 79.8364 5.28C79.2604 5.28 78.839 5.49333 78.5724 5.92C78.3164 6.336 78.1884 6.90667 78.1884 7.632C78.1884 8.304 78.3217 8.864 78.5884 9.312C78.855 9.74933 79.271 9.968 79.8364 9.968ZM92.0121 12C91.9055 12 91.8201 11.968 91.7561 11.904C91.6921 11.84 91.6601 11.7547 91.6601 11.648V11.408C91.6601 11.1947 91.7935 10.9707 92.0601 10.736L96.2041 6.592C96.7908 6.048 97.1855 5.58933 97.3881 5.216C97.5908 4.84267 97.6921 4.4 97.6921 3.888C97.6921 3.17333 97.4841 2.61333 97.0681 2.208C96.6628 1.80267 96.0815 1.6 95.3241 1.6C94.6095 1.6 94.0388 1.808 93.6121 2.224C93.1855 2.64 92.9295 3.2 92.8441 3.904C92.8335 4.02133 92.7855 4.112 92.7001 4.176C92.6255 4.24 92.5508 4.272 92.4761 4.272H92.1561C92.0495 4.272 91.9641 4.24533 91.9001 4.192C91.8468 4.128 91.8201 4.05333 91.8201 3.968C91.8415 3.44533 91.9801 2.928 92.2361 2.416C92.4921 1.904 92.8815 1.48267 93.4041 1.152C93.9268 0.810666 94.5668 0.639999 95.3241 0.639999C96.4655 0.639999 97.3135 0.949333 97.8681 1.568C98.4228 2.18667 98.7001 2.96 98.7001 3.888C98.7001 4.528 98.5615 5.104 98.2841 5.616C98.0068 6.128 97.5641 6.66667 96.9561 7.232L93.2121 11.04H98.5721C98.6895 11.04 98.7801 11.072 98.8441 11.136C98.9081 11.2 98.9401 11.2907 98.9401 11.408V11.648C98.9401 11.7547 98.9028 11.84 98.8281 11.904C98.7641 11.968 98.6788 12 98.5721 12H92.0121ZM104.709 12.16C103.365 12.16 102.395 11.7547 101.797 10.944C101.211 10.1333 100.901 9.06667 100.869 7.744L100.853 6.416L100.869 5.056C100.901 3.73333 101.211 2.66667 101.797 1.856C102.395 1.04533 103.365 0.639999 104.709 0.639999C106.053 0.639999 107.019 1.04533 107.605 1.856C108.203 2.66667 108.517 3.73333 108.549 5.056C108.56 5.35467 108.565 5.808 108.565 6.416C108.565 7.01333 108.56 7.456 108.549 7.744C108.517 9.06667 108.203 10.1333 107.605 10.944C107.019 11.7547 106.053 12.16 104.709 12.16ZM104.709 11.2C105.627 11.2 106.32 10.896 106.789 10.288C107.269 9.66933 107.52 8.79467 107.541 7.664C107.552 7.35467 107.557 6.928 107.557 6.384C107.557 5.84 107.552 5.424 107.541 5.136C107.52 4.02667 107.269 3.16267 106.789 2.544C106.32 1.91467 105.627 1.6 104.709 1.6C103.792 1.6 103.093 1.91467 102.613 2.544C102.144 3.16267 101.899 4.02667 101.877 5.136L101.861 6.384L101.877 7.664C101.899 8.79467 102.144 9.66933 102.613 10.288C103.093 10.896 103.792 11.2 104.709 11.2ZM114.057 12C113.95 12 113.865 11.968 113.801 11.904C113.737 11.84 113.705 11.7547 113.705 11.648V2.112L110.841 4.32C110.755 4.37333 110.681 4.4 110.617 4.4C110.51 4.4 110.419 4.352 110.345 4.256L110.169 4.032C110.115 3.95733 110.089 3.88267 110.089 3.808C110.089 3.70133 110.137 3.61067 110.233 3.536L113.641 0.912C113.747 0.837333 113.886 0.799999 114.057 0.799999H114.361C114.467 0.799999 114.553 0.831999 114.617 0.896C114.681 0.96 114.713 1.04533 114.713 1.152V11.648C114.713 11.7547 114.681 11.84 114.617 11.904C114.553 11.968 114.467 12 114.361 12H114.057ZM119.232 12C119.136 12 119.056 11.968 118.992 11.904C118.938 11.8293 118.912 11.744 118.912 11.648C118.912 11.584 118.938 11.5147 118.992 11.44L121.52 7.888C121.2 7.97333 120.853 8.016 120.48 8.016C119.669 8.016 118.976 7.84 118.4 7.488C117.834 7.136 117.408 6.67733 117.12 6.112C116.832 5.54667 116.688 4.95467 116.688 4.336C116.688 3.71733 116.832 3.12533 117.12 2.56C117.408 1.99467 117.834 1.536 118.4 1.184C118.976 0.821333 119.669 0.639999 120.48 0.639999C121.29 0.639999 121.984 0.821333 122.56 1.184C123.136 1.536 123.568 1.99467 123.856 2.56C124.144 3.12533 124.288 3.71733 124.288 4.336C124.288 4.89067 124.197 5.38133 124.016 5.808C123.834 6.23467 123.61 6.64 123.344 7.024L120.048 11.68C120.037 11.7013 120.005 11.744 119.952 11.808C119.909 11.8613 119.85 11.9093 119.776 11.952C119.712 11.984 119.637 12 119.552 12H119.232ZM120.48 7.056C120.981 7.056 121.445 6.944 121.872 6.72C122.298 6.496 122.64 6.176 122.896 5.76C123.152 5.344 123.28 4.86933 123.28 4.336C123.28 3.792 123.152 3.312 122.896 2.896C122.64 2.48 122.298 2.16 121.872 1.936C121.445 1.712 120.981 1.6 120.48 1.6C119.978 1.6 119.514 1.712 119.088 1.936C118.661 2.16 118.32 2.48 118.064 2.896C117.818 3.312 117.696 3.792 117.696 4.336C117.696 4.88 117.818 5.36 118.064 5.776C118.32 6.18133 118.661 6.496 119.088 6.72C119.514 6.944 119.978 7.056 120.48 7.056Z" fill="#402B2B"/>
</svg>
